<?xml version="1.0" encoding="UTF-8"?>
<svg version="1.1" xmlns="http://www.w3.org/2000/svg" width="120" height="120">
<path d="M0 0 C3.50969775 3.13632565 4.82268637 5.04895415 5.6875 9.6875 C5.06440344 19.03835974 -3.10117203 28.57017798 -8 36.25 C-8.59039062 37.19101563 -9.18078125 38.13203125 -9.7890625 39.1015625 C-18.77965039 53.24094521 -18.77965039 53.24094521 -23.25170898 54.76977539 C-27.28204694 55.54000975 -30.29334282 55.21049853 -33.9375 53.3125 C-38.2327044 50.06918239 -38.2327044 50.06918239 -39 47 C-39.76015512 39.64913826 -37.62620207 35.66424993 -33.6875 29.5625 C-33.14931641 28.70084229 -32.61113281 27.83918457 -32.05664062 26.95141602 C-30.93988233 25.17097023 -29.8146423 23.39581746 -28.68115234 21.62597656 C-27.06620993 19.10342056 -25.47768299 16.56602898 -23.89453125 14.0234375 C-22.93127778 12.49378908 -21.9665059 10.96509546 -21 9.4375 C-20.3342395 8.37607788 -20.3342395 8.37607788 -19.6550293 7.29321289 C-16.92401593 3.05891809 -14.60325663 -0.08534227 -9.6875 -1.8125 C-5.94919489 -2.07331198 -3.47043773 -1.42535835 0 0 Z " fill="#FF3D57" transform="translate(52,32)"/>
<path d="M0 0 C3.71643291 3.12962771 4.85613661 4.97405453 5.53515625 9.81640625 C5.44632762 16.86770717 1.16809439 22.23135463 -2.5625 27.9375 C-3.26697266 29.05318359 -3.97144531 30.16886719 -4.69726562 31.31835938 C-18.67730368 53.31276027 -18.67730368 53.31276027 -23.0859375 54.6171875 C-26.88921871 55.0455434 -29.30348456 55.3028328 -32.875 53.75 C-38.36712105 49.22707678 -38.36712105 49.22707678 -38.9375 44.8125 C-39.04964844 44.09707031 -39.16179688 43.38164063 -39.27734375 42.64453125 C-38.51910405 35.41455551 -33.08044598 28.72719949 -29.25 22.75 C-28.722854 21.92314697 -28.19570801 21.09629395 -27.65258789 20.24438477 C-26.10696281 17.82618 -24.55446654 15.41252796 -23 13 C-22.57509277 12.33661621 -22.15018555 11.67323242 -21.71240234 10.98974609 C-14.56474128 -0.14508624 -14.56474128 -0.14508624 -9.75 -1.75 C-6.04295728 -2.08700388 -3.46619949 -1.32345799 0 0 Z " fill="#FFCB00" transform="translate(87,32)"/>
<path d="M0 0 C3.12001504 1.68818449 5.39047471 3.78094941 7 7 C7.39431433 11.73177192 7.45299639 14.09400722 5.3125 18.375 C2.78186159 21.24761657 1.72916765 22.25416647 -2 23 C-6.76731402 23.13893811 -10.02561052 22.66989276 -14 19.9375 C-16.50271929 16.26163104 -17.3040283 13.43012673 -17 9 C-13.95609245 0.50909998 -8.51668522 -1.4753313 0 0 Z " fill="#00D647" transform="translate(100,64)"/>
</svg>
